<svg width="24" height="24" viewBox="0 0 24 24" fill="none" xmlns="http://www.w3.org/2000/svg">
    <path d="M12.22 2C14.66 2 16.86 3.59 17.69 5.91L17.88 6.5L17.96 6.82L18 7.18V16.15C18 18.83 15.86 21 13.18 21H10.82C8.14 21 6 18.83 6 16.15V7C6 4.24 8.24 2 11 2H12.22ZM12.22 4H11C9.34 4 8 5.34 8 7V16.15C8 17.72 9.25 19 10.82 19H13.18C14.75 19 16 17.72 16 16.15V7.18L15.95 6.91C15.48 5.25 13.97 4 12.22 4ZM11 8C11.55 8 12 8.45 12 9V14C12 14.55 11.55 15 11 15C10.45 15 10 14.55 10 14V9C10 8.45 10.45 8 11 8Z" fill="#999999"/>
</svg>
