<svg width="60" height="60" viewBox="0 0 60 60" fill="none" xmlns="http://www.w3.org/2000/svg">
<path fill-rule="evenodd" clip-rule="evenodd" d="M39.4665 16.6618H51.4805C52.7154 16.6618 53.7688 17.3203 54.2153 18.3718L58.8641 29.3178C59.0016 29.6416 59.0625 29.9387 59.0625 30.2861V43.8286C59.0625 44.7968 58.2729 45.5864 57.3047 45.5864H55.9443C55.9443 41.6391 52.7432 38.438 48.7958 38.438C44.8485 38.438 41.6474 41.6391 41.6474 45.5864H39.4665V16.6618ZM15.0789 40.313C17.9913 40.313 20.3523 42.6739 20.3523 45.5864C20.3523 48.4989 17.9913 50.8598 15.0789 50.8598C12.1664 50.8598 9.80543 48.4989 9.80543 45.5864C9.80555 42.6739 12.1664 40.313 15.0789 40.313ZM15.0789 42.9497C13.6216 42.9497 12.4421 44.1292 12.4421 45.5864C12.4421 47.0436 13.6215 48.2231 15.0789 48.2231C16.5361 48.2231 17.7156 47.0437 17.7156 45.5864C17.7157 44.1292 16.5362 42.9497 15.0789 42.9497ZM48.7958 40.313C45.8834 40.313 43.5224 42.6739 43.5224 45.5864C43.5224 48.4989 45.8834 50.8598 48.7958 50.8598C51.7083 50.8598 54.0693 48.4989 54.0693 45.5864C54.0693 42.6739 51.7083 40.313 48.7958 40.313ZM48.7958 42.9497C47.3386 42.9497 46.1591 44.1292 46.1591 45.5864C46.1591 47.0436 47.3385 48.2231 48.7958 48.2231C50.253 48.2231 51.4325 47.0437 51.4325 45.5864C51.4325 44.1292 50.253 42.9497 48.7958 42.9497ZM0.9375 43.2428C0.9375 44.5336 1.99031 45.5865 3.28113 45.5865H7.93055C7.93055 41.6392 11.1316 38.4381 15.079 38.4381C19.0263 38.4381 22.2274 41.6392 22.2274 45.5865H37.5914V26.5983H0.9375V43.2428ZM0.9375 21.5006V11.4843C0.9375 10.1934 1.99031 9.14062 3.28113 9.14062H35.2478C36.5386 9.14062 37.5914 10.1936 37.5914 11.4843V21.5006H0.9375ZM54.6434 28.596L51.4082 20.9783C51.2204 20.5362 50.8099 20.2645 50.3296 20.2645H43.3037C42.6582 20.2645 42.1318 20.7909 42.1318 21.4364V28.239C42.1318 28.8845 42.6582 29.4109 43.3037 29.4109H54.1041C54.3067 29.4109 54.4808 29.3173 54.5926 29.1484C54.7044 28.9794 54.7225 28.7825 54.6434 28.596Z" fill="white"/>
</svg>
