<svg width="48" height="48" viewBox="0 0 48 48" fill="none" xmlns="http://www.w3.org/2000/svg">
<path d="M27 33H26.9685C26.7912 32.9925 26.6223 32.9223 26.4919 32.802C26.3614 32.6818 26.2778 32.5191 26.256 32.343L24.6015 19.11L23.2365 26.388C23.2071 26.5479 23.1265 26.694 23.0068 26.804C22.887 26.914 22.7347 26.9821 22.5728 26.9978C22.411 27.0136 22.2484 26.9762 22.1097 26.8914C21.971 26.8065 21.8637 26.6788 21.804 26.5275L21.096 24.756L21.0315 24.9675C20.9844 25.1214 20.8892 25.2561 20.7599 25.352C20.6306 25.4478 20.4739 25.4997 20.313 25.5H12.75C12.5511 25.5 12.3603 25.421 12.2197 25.2803C12.079 25.1397 12 24.9489 12 24.75C12 24.5511 12.079 24.3603 12.2197 24.2197C12.3603 24.079 12.5511 24 12.75 24H19.758L20.283 22.281C20.3284 22.1327 20.4187 22.0021 20.5415 21.9073C20.6642 21.8124 20.8133 21.7579 20.9683 21.7514C21.1233 21.7448 21.2765 21.7864 21.4068 21.8705C21.5371 21.9546 21.6382 22.0771 21.696 22.221L22.2375 23.5755L24.012 14.1105C24.05 13.9372 24.1462 13.7821 24.2845 13.6711C24.4229 13.56 24.5951 13.4996 24.7725 13.5C24.9514 13.5054 25.1224 13.5746 25.2547 13.6951C25.387 13.8156 25.4719 13.9794 25.494 14.157L27.195 27.762L28.5165 21.5925C28.552 21.427 28.6425 21.2783 28.7732 21.1708C28.904 21.0632 29.0672 21.003 29.2365 21C29.517 20.9985 29.892 21.2295 29.976 21.5685L30.5865 24H42.75C42.9489 24 43.1397 24.079 43.2803 24.2197C43.421 24.3603 43.5 24.5511 43.5 24.75C43.5 24.9489 43.421 25.1397 43.2803 25.2803C43.1397 25.421 42.9489 25.5 42.75 25.5H30C29.8534 25.4998 29.71 25.4567 29.5876 25.3759C29.4653 25.2951 29.3693 25.1803 29.3115 25.0455L27.7335 32.4075C27.6975 32.5753 27.605 32.7256 27.4715 32.8334C27.338 32.9413 27.1716 33.0001 27 33ZM26.25 6H21.75C21.5511 6 21.3603 5.92098 21.2197 5.78033C21.079 5.63968 21 5.44891 21 5.25C21 5.05109 21.079 4.86032 21.2197 4.71967C21.3603 4.57902 21.5511 4.5 21.75 4.5H26.25C26.4489 4.5 26.6397 4.57902 26.7803 4.71967C26.921 4.86032 27 5.05109 27 5.25C27 5.44891 26.921 5.63968 26.7803 5.78033C26.6397 5.92098 26.4489 6 26.25 6Z" fill="url(#paint0_linear_53_2944)"/>
<path d="M32.25 46.5H15.75C14.7558 46.4988 13.8027 46.1033 13.0997 45.4003C12.3967 44.6973 12.0012 43.7442 12 42.75V24.75C12 24.5511 12.079 24.3603 12.2197 24.2197C12.3603 24.079 12.5511 24 12.75 24C12.9489 24 13.1397 24.079 13.2803 24.2197C13.421 24.3603 13.5 24.5511 13.5 24.75V42.75C13.5 43.9905 14.5095 45 15.75 45H32.25C33.4905 45 34.5 43.9905 34.5 42.75V24.75C34.5 24.5511 34.579 24.3603 34.7197 24.2197C34.8603 24.079 35.0511 24 35.25 24C35.4489 24 35.6397 24.079 35.7803 24.2197C35.921 24.3603 36 24.5511 36 24.75V42.75C36 44.817 34.317 46.5 32.25 46.5ZM35.25 22.5C35.0511 22.5 34.8603 22.421 34.7197 22.2803C34.579 22.1397 34.5 21.9489 34.5 21.75V5.25C34.5 4.0095 33.4905 3 32.25 3H15.75C14.5095 3 13.5 4.0095 13.5 5.25V21.75C13.5 21.9489 13.421 22.1397 13.2803 22.2803C13.1397 22.421 12.9489 22.5 12.75 22.5C12.5511 22.5 12.3603 22.421 12.2197 22.2803C12.079 22.1397 12 21.9489 12 21.75V5.25C12 3.183 13.683 1.5 15.75 1.5H32.25C34.317 1.5 36 3.183 36 5.25V21.75C36 21.9489 35.921 22.1397 35.7803 22.2803C35.6397 22.421 35.4489 22.5 35.25 22.5ZM45.9015 25.5H45.75C45.5511 25.5 45.3603 25.421 45.2197 25.2803C45.079 25.1397 45 24.9489 45 24.75C45 24.5511 45.079 24.3603 45.2197 24.2197C45.3603 24.079 45.5511 24 45.75 24H45.9015C46.1004 24 46.2912 24.079 46.4318 24.2197C46.5725 24.3603 46.6515 24.5511 46.6515 24.75C46.6515 24.9489 46.5725 25.1397 46.4318 25.2803C46.2912 25.421 46.1004 25.5 45.9015 25.5Z" fill="url(#paint1_linear_53_2944)"/>
<defs>
<linearGradient id="paint0_linear_53_2944" x1="27.75" y1="4.5" x2="27.75" y2="33" gradientUnits="userSpaceOnUse">
<stop stop-color="#D73FAB"/>
<stop offset="1" stop-color="#6A0BD4"/>
</linearGradient>
<linearGradient id="paint1_linear_53_2944" x1="29.3257" y1="1.5" x2="29.3257" y2="46.5" gradientUnits="userSpaceOnUse">
<stop stop-color="#D73FAB"/>
<stop offset="1" stop-color="#6A0BD4"/>
</linearGradient>
</defs>
</svg>
