<svg width="17" height="17" viewBox="0 0 17 17" fill="none" xmlns="http://www.w3.org/2000/svg">
<path d="M9.94531 0.252319C10.2899 0.0517971 10.6931 -0.00192257 11.0781 0.100952C11.4649 0.204569 11.7882 0.454322 11.9883 0.803101L14.0645 4.42908C14.8242 4.50392 15.4219 5.13839 15.4219 5.91833V8.13416C15.8456 8.30033 16.1493 8.7079 16.1494 9.1908V11.3724C16.1494 11.8552 15.8454 12.2618 15.4219 12.4281V14.6459C15.4216 15.4754 14.7474 16.1496 13.918 16.1498H1.55371C0.724224 16.1495 0.0500388 15.4753 0.0498047 14.6459V5.91833C0.0498047 5.08865 0.724115 4.41369 1.55371 4.41345H2.79785L9.94531 0.252319ZM1.55371 5.2406C1.18062 5.24083 0.876953 5.54519 0.876953 5.91833V14.6459C0.877187 15.0188 1.18076 15.3224 1.55371 15.3226H13.918C14.2909 15.3224 14.5945 15.0188 14.5947 14.6459V12.514H12.4629C11.2322 12.5139 10.2314 11.5123 10.2314 10.2816C10.2316 9.05106 11.2323 8.05026 12.4629 8.05017H14.5947V5.91833C14.5947 5.54517 14.2911 5.24081 13.918 5.2406H1.55371ZM12.4629 8.87732C11.6885 8.87741 11.0587 9.50722 11.0586 10.2816C11.0586 11.0562 11.6884 11.6868 12.4629 11.6869H15.0088C15.1817 11.6867 15.3223 11.5453 15.3223 11.3724V9.1908C15.3222 9.01795 15.1816 8.87749 15.0088 8.87732H12.4629ZM10.2051 4.41345H13.1016L12.377 3.14783L10.2051 4.41345ZM7.32422 4.41345H8.55957L11.9658 2.43005L11.6562 1.89001L7.32422 4.41345ZM10.8643 0.89978C10.6937 0.854232 10.5151 0.877918 10.3623 0.967163L4.44336 4.41345H5.67871L11.2422 1.17419C11.1519 1.03954 11.0211 0.941843 10.8643 0.89978Z" fill="#6D6D6D" stroke="#6D6D6D" stroke-width="0.1"/>
<path d="M12.4629 9.50482C12.8913 9.50498 13.2403 9.85374 13.2402 10.2822C13.2401 10.7105 12.8912 11.0594 12.4629 11.0595C12.0345 11.0595 11.6857 10.7106 11.6855 10.2822C11.6855 9.85365 12.0344 9.50482 12.4629 9.50482Z" fill="#6D6D6D" stroke="#6D6D6D" stroke-width="0.1"/>
</svg>
