<svg width="63" height="53" viewBox="0 0 63 53" fill="none" xmlns="http://www.w3.org/2000/svg">
<path d="M62.125 17.125H47.3125V7.625C47.3125 3.5875 44.1031 0.5 39.9062 0.5H25.0938C20.8969 0.5 17.6875 3.5875 17.6875 7.625V17.125H2.875C1.39375 17.125 0.40625 18.075 0.40625 19.5C0.40625 19.7375 0.40625 19.7375 0.40625 19.975L5.09688 48.7125C5.34375 51.0875 7.56563 52.75 10.0344 52.75H30.0312V48H10.0344L5.8375 21.875H62.125V17.125ZM22.625 7.625C22.625 6.2 23.6125 5.25 25.0938 5.25H39.9062C41.3875 5.25 42.375 6.2 42.375 7.625V17.125H22.625V7.625Z" fill="white"/>
</svg>
