<svg width="110" height="134" viewBox="0 0 110 134" fill="none" xmlns="http://www.w3.org/2000/svg">
<path d="M52.8166 0.1978C51.2293 0.53978 50.4631 1.03221 47.9591 3.34392C42.6501 8.22725 39.3251 10.6894 35.357 12.6729C32.4425 14.1228 29.8838 14.9298 26.0662 15.5728C21.3866 16.3524 18.4995 16.5713 12.3832 16.5987C7.77197 16.626 6.9373 16.6534 6.22579 16.8586C3.2292 17.734 0.820983 20.2509 0.205246 23.1782C0.0410491 23.9715 0 26.2148 0 36.7065C0 49.2773 0.0957813 53.3672 0.478907 58.3873C2.10719 79.2611 7.9088 96.4964 17.7469 109.751C19.772 112.473 21.6876 114.689 24.2874 117.274C29.487 122.486 34.6865 126.275 40.9123 129.38C45.8792 131.87 51.5714 133.812 54.3901 133.99C57.0172 134.154 62.901 132.294 68.4836 129.544C76.7619 125.454 83.8497 119.832 89.966 112.487C100.871 99.3826 107.426 81.6549 109.396 59.9604C109.861 54.8719 109.902 53.0389 109.971 38.8267C110.039 22.6173 110.066 23.2055 109.122 21.2358C108.548 20.0594 107.357 18.7052 106.208 17.9529C105.784 17.6656 104.908 17.2416 104.265 17.0227L103.102 16.5987L99.4073 16.6397C92.7163 16.7218 86.6137 16.1746 81.6194 15.0803C77.5829 14.1775 74.1074 12.4677 69.1404 8.93855C67.5532 7.80321 66.3491 6.85937 61.3137 2.79677C60.2054 1.89397 59.0834 1.12796 58.495 0.854385C56.7436 0.0199738 54.7185 -0.212555 52.8166 0.1978ZM56.2099 9.66352C60.8759 13.8903 66.2533 17.6793 71.0013 20.1004C74.8052 22.0428 78.1575 23.0961 83.0561 23.9031C87.9957 24.7102 91.8953 25.0111 97.6696 25.0111H101.556L101.487 39.4012C101.419 53.928 101.378 55.2549 100.844 60.5075C99.1473 77.264 94.5225 91.107 86.8463 102.406C82.9877 108.082 77.3366 113.868 71.9044 117.699C66.9101 121.214 61.0811 124.032 56.0457 125.331L54.8143 125.66L53.3639 125.263C47.8633 123.786 41.6238 120.612 36.3969 116.618C20.9898 104.84 11.6716 85.6355 9.16764 60.5075C8.60664 54.8719 8.57927 53.9828 8.52454 39.4012L8.45612 25.0111H12.3421C19.9772 25.0111 26.422 24.3135 31.991 22.8909C37.2042 21.5504 42.8827 18.4179 49.1905 13.3978C50.5041 12.3446 53.1586 10.0055 53.9796 9.1574C54.3491 8.7744 54.7048 8.45979 54.7732 8.45979C54.8416 8.45979 55.4847 9.00694 56.2099 9.66352Z" fill="url(#paint0_linear_2265_4923)"/>
<path d="M82.7824 44.0895C81.2775 44.4691 81.5536 44.2115 64.048 61.3881L47.274 77.8461L38.7144 69.4408C30.9556 61.8354 30.072 61.0085 29.2713 60.6424C26.6482 59.4359 23.5971 60.4933 22.3822 63.042C22.0647 63.7063 22.0095 63.991 22.0095 65.1026C22.0095 67.4208 21.2364 66.5125 33.6477 78.6866C45.9486 90.7386 45.0237 89.9659 47.274 89.9659C49.5657 89.9659 47.6191 91.6876 69.0595 70.6745C90.693 49.458 88.9673 51.3424 88.9673 48.97C88.9673 47.777 88.9259 47.6007 88.5117 46.7738C87.9595 45.6621 86.9793 44.7538 85.8887 44.3607C84.9913 44.0217 83.5555 43.8997 82.7824 44.0895Z" fill="url(#paint1_linear_2265_4923)"/>
<defs>
<linearGradient id="paint0_linear_2265_4923" x1="-12.5261" y1="68.6398" x2="127.984" y2="68.6398" gradientUnits="userSpaceOnUse">
<stop stop-color="#F599F3"/>
<stop offset="1" stop-color="#7855D5"/>
</linearGradient>
<linearGradient id="paint1_linear_2265_4923" x1="14.3705" y1="67.5629" x2="99.9538" y2="67.5629" gradientUnits="userSpaceOnUse">
<stop stop-color="#F599F3"/>
<stop offset="1" stop-color="#7855D5"/>
</linearGradient>
</defs>
</svg>
