<svg width="18" height="22" viewBox="0 0 18 22" fill="none" xmlns="http://www.w3.org/2000/svg">
<path d="M9 0L0 3.273V10.548C0 18.768 8.73375 21.0045 8.8215 21.027L9 21.0697L9.1785 21.027C9.26625 21.0045 18 18.768 18 10.548V3.273L9 0ZM16.5 10.548C16.5 17.0572 10.1925 19.1782 9.003 19.5202C7.8555 19.1805 1.5 17.001 1.5 10.548V4.323L9 1.596L16.5 4.323V10.548Z" fill="#6D6D6D"/>
<path d="M5.03023 10.0177L3.96973 11.0782L7.49998 14.6084L14.0302 8.0782L12.9697 7.0177L7.49998 12.4875L5.03023 10.0177Z" fill="#6D6D6D"/>
</svg>
