<svg width="15" height="18" viewBox="0 0 15 18" fill="none" xmlns="http://www.w3.org/2000/svg">
<path d="M7.5 0L0 2.7275V8.79C0 15.64 7.27813 17.5037 7.35125 17.5225L7.5 17.5581L7.64875 17.5225C7.72188 17.5037 15 15.64 15 8.79V2.7275L7.5 0ZM13.75 8.79C13.75 14.2144 8.49375 15.9819 7.5025 16.2669C6.54625 15.9837 1.25 14.1675 1.25 8.79V3.6025L7.5 1.33L13.75 3.6025V8.79Z" fill="#6D6D6D"/>
<path d="M4.19234 8.34811L3.30859 9.23186L6.25047 12.1737L11.6923 6.73186L10.8086 5.84811L6.25047 10.4062L4.19234 8.34811Z" fill="#6D6D6D"/>
</svg>
