<svg width="18" height="12" viewBox="0 0 18 12" fill="none" xmlns="http://www.w3.org/2000/svg">
<path d="M12.5701 9.93793H6.97363" stroke="#6D6D6D" stroke-miterlimit="10" stroke-linecap="round" stroke-linejoin="round"/>
<path d="M15.9777 9.93793H17.1658V6.33064L14.1904 3.25637H11.7559V9.90518" stroke="#6D6D6D" stroke-miterlimit="10" stroke-linecap="round" stroke-linejoin="round"/>
<path d="M13.1953 8.6834C13.8294 8.04928 14.8573 8.04928 15.4914 8.6834C16.1255 9.31748 16.1255 10.3456 15.4914 10.9797C14.8573 11.6138 13.8294 11.6138 13.1953 10.9797C12.5612 10.3456 12.5612 9.31748 13.1953 8.6834Z" stroke="#6D6D6D" stroke-miterlimit="10" stroke-linecap="round" stroke-linejoin="round"/>
<path d="M4.14451 8.6834C4.7786 8.04928 5.80659 8.04928 6.44068 8.6834C7.07473 9.31748 7.07473 10.3456 6.44068 10.9797C5.80659 11.6138 4.7786 11.6138 4.14451 10.9797C3.51042 10.3456 3.51042 9.31748 4.14451 8.6834Z" stroke="#6D6D6D" stroke-miterlimit="10" stroke-linecap="round" stroke-linejoin="round"/>
<path d="M17.166 6.33069H11.7559" stroke="#6D6D6D" stroke-miterlimit="10" stroke-linecap="round" stroke-linejoin="round"/>
<path d="M2.13672 0.500058V9.93231H3.60174" stroke="#6D6D6D" stroke-miterlimit="10" stroke-linecap="round" stroke-linejoin="round"/>
<path d="M11.7702 3.2608V0.500012H2.13672" stroke="#6D6D6D" stroke-miterlimit="10" stroke-linecap="round" stroke-linejoin="round"/>
<path d="M5.73543 0.5H2.13672" stroke="#6D6D6D" stroke-miterlimit="10" stroke-linecap="round" stroke-linejoin="round"/>
<path d="M5.7356 2.57513H1.22559" stroke="#6D6D6D" stroke-miterlimit="10" stroke-linecap="round" stroke-linejoin="round"/>
<path d="M5.35586 4.65027H0.5" stroke="#6D6D6D" stroke-miterlimit="10" stroke-linecap="round" stroke-linejoin="round"/>
</svg>
