<svg width="16" height="16" viewBox="0 0 16 16" fill="none" xmlns="http://www.w3.org/2000/svg">
<path d="M15.4894 0H0.510638C0.375209 0 0.245326 0.0537992 0.149562 0.149562C0.0537992 0.245326 0 0.375209 0 0.510638V4.59574C0 5.44953 0.578723 6.16443 1.3617 6.38774V14.1277C1.3617 15.1598 2.20187 16 3.23404 16H12.766C13.7981 16 14.6383 15.1598 14.6383 14.1277V6.38774C15.4213 6.16443 16 5.44953 16 4.59574V0.510638C16 0.375209 15.9462 0.245326 15.8504 0.149562C15.7547 0.0537992 15.6248 0 15.4894 0ZM8.51064 5.44681V1.02128H11.234V5.44681H8.51064ZM4.76596 5.44681V1.02128H7.48936V5.44681H4.76596ZM1.02128 4.59574V1.02128H3.74468V5.44681H1.87234C1.64673 5.44645 1.43047 5.35667 1.27095 5.19714C1.11142 5.03761 1.02164 4.82135 1.02128 4.59574ZM6.46808 10.5532H9.53191V14.9787H6.46808V10.5532ZM12.766 14.9787H10.5532V10.0426C10.5532 9.90712 10.4994 9.77724 10.4036 9.68148C10.3079 9.58571 10.178 9.53191 10.0426 9.53191H5.95745C5.82202 9.53191 5.69213 9.58571 5.59637 9.68148C5.50061 9.77724 5.44681 9.90712 5.44681 10.0426V14.9787H3.23404C3.00844 14.9784 2.79217 14.8886 2.63265 14.7291C2.47312 14.5695 2.38334 14.3533 2.38298 14.1277V6.46808H13.617V14.1277C13.617 14.5974 13.2357 14.9787 12.766 14.9787ZM14.9787 4.59574C14.9787 5.06553 14.5974 5.44681 14.1277 5.44681H12.2553V1.02128H14.9787V4.59574Z" fill="#6D6D6D"/>
</svg>
