<svg width="48" height="48" viewBox="0 0 48 48" fill="none" xmlns="http://www.w3.org/2000/svg">
<path d="M5.36571 33.6412C5.26938 33.4734 5.11197 33.3492 4.92631 33.2946C4.74065 33.2401 4.54108 33.2593 4.36925 33.3483C4.19742 33.4373 4.0666 33.5892 4.00408 33.7724C3.94156 33.9555 3.95217 34.1557 4.03371 34.3312C7.92021 41.8372 15.5807 46.5 24.0265 46.5C27.7521 46.5028 31.4198 45.5784 34.699 43.81C37.9782 42.0416 40.7657 39.485 42.8102 36.3705L42.97 37.527C43.0001 37.7214 43.1054 37.8962 43.2632 38.0137C43.4209 38.1313 43.6186 38.1821 43.8135 38.1552C44.0084 38.1283 44.185 38.026 44.3051 37.8701C44.4252 37.7143 44.4793 37.5176 44.4557 37.3222L44.0057 34.0575C44.0027 34.0365 43.9907 34.02 43.9862 34.0005C43.975 33.9533 43.9591 33.9073 43.939 33.8632C43.9217 33.8221 43.9006 33.7826 43.876 33.7455C43.8485 33.7057 43.8171 33.6687 43.7822 33.6352C43.7483 33.6013 43.7111 33.5709 43.6712 33.5445C43.6502 33.5302 43.6367 33.51 43.6142 33.498C43.5947 33.4875 43.5737 33.4882 43.5542 33.48C43.5058 33.4596 43.4552 33.4447 43.4035 33.4357C43.3607 33.4266 43.3173 33.4211 43.2737 33.4192C43.255 33.4192 43.2377 33.411 43.2182 33.4125L39.9295 33.6097C39.8311 33.6155 39.7348 33.6406 39.6462 33.6836C39.5576 33.7266 39.4783 33.7867 39.4129 33.8604C39.3476 33.9341 39.2974 34.02 39.2653 34.1132C39.2332 34.2063 39.2199 34.3049 39.226 34.4032C39.2315 34.5016 39.2565 34.598 39.2994 34.6867C39.3424 34.7755 39.4025 34.8548 39.4762 34.9202C39.55 34.9856 39.636 35.0357 39.7292 35.0678C39.8224 35.0998 39.9211 35.113 40.0195 35.1067L41.9222 34.9927C40.0462 38.0538 37.4154 40.5818 34.2819 42.3343C31.1485 44.0869 27.6174 45.0052 24.0272 45.0015C16.144 45.0015 8.99421 40.6492 5.36646 33.6427L5.36571 33.6412ZM24.0265 1.49997C16.255 1.49997 9.18246 5.43747 5.06796 11.8972L4.91646 10.7962C4.90451 10.6974 4.87301 10.6019 4.8238 10.5154C4.77458 10.4289 4.70864 10.353 4.6298 10.2923C4.55097 10.2315 4.46082 10.187 4.36463 10.1614C4.26843 10.1358 4.1681 10.1297 4.06949 10.1432C3.97087 10.1568 3.87596 10.1899 3.79026 10.2406C3.70457 10.2912 3.62981 10.3584 3.57036 10.4383C3.5109 10.5181 3.46793 10.609 3.44396 10.7056C3.41998 10.8022 3.41548 10.9026 3.43071 11.001L3.88071 14.2657C3.88371 14.2897 3.89721 14.3092 3.90321 14.3325C3.92414 14.4239 3.96288 14.5103 4.01721 14.5867C4.07064 14.6671 4.14136 14.7345 4.22421 14.784C4.24596 14.7982 4.26096 14.8192 4.28421 14.8312C4.29996 14.8395 4.31721 14.8425 4.33371 14.8492C4.35171 14.8567 4.36971 14.8627 4.38846 14.8695C4.46571 14.895 4.54446 14.9122 4.62321 14.9122C4.63896 14.9122 4.65396 14.9122 4.66896 14.9107L7.95846 14.7135C8.05681 14.7077 8.15307 14.6826 8.2417 14.6396C8.33033 14.5966 8.40961 14.5365 8.47496 14.4628C8.54032 14.3891 8.59049 14.3032 8.62257 14.21C8.65466 14.1169 8.66805 14.0183 8.66195 13.92C8.63721 13.506 8.27496 13.1805 7.86846 13.2165L5.93871 13.332C9.71121 6.92697 16.5235 2.99922 24.028 2.99922C31.9802 2.99922 39.1585 7.40622 42.763 14.502C42.8076 14.5898 42.8691 14.6679 42.944 14.732C43.0189 14.796 43.1056 14.8446 43.1993 14.8751C43.293 14.9056 43.3917 14.9174 43.4899 14.9097C43.5882 14.9021 43.6839 14.8751 43.7717 14.8305C43.8595 14.7858 43.9377 14.7243 44.0017 14.6494C44.0657 14.5746 44.1144 14.4878 44.1449 14.3941C44.1754 14.3005 44.1871 14.2017 44.1795 14.1035C44.1718 14.0053 44.1449 13.9095 44.1002 13.8217C40.2392 6.22048 32.5472 1.49847 24.028 1.49847L24.0265 1.49997Z" fill="url(#paint0_linear_53_2949)"/>
<path d="M20.852 21.1387C19.0625 21.2047 17.4065 21.9637 16.1878 23.2762C14.969 24.5887 14.3345 26.2965 14.4013 28.086C14.4314 28.9662 14.6357 29.8317 15.0025 30.6325C15.3692 31.4332 15.8911 32.1533 16.538 32.751C17.1817 33.3522 17.9382 33.8197 18.7638 34.1265C19.5894 34.4333 20.4677 34.5733 21.3478 34.5382C23.1373 34.4722 24.7933 33.7132 26.012 32.4007C27.2308 31.0882 27.8653 29.3805 27.7993 27.591C27.7333 25.8015 26.9743 24.1455 25.6618 22.9267C24.3493 21.708 22.6408 21.0705 20.852 21.1402V21.1387ZM24.9125 31.3785C24.4487 31.8808 23.8898 32.2861 23.2682 32.5708C22.6467 32.8556 21.9748 33.0142 21.2915 33.0375C20.6083 33.0651 19.9264 32.9567 19.2855 32.7185C18.6446 32.4803 18.0574 32.1171 17.558 31.65C16.5481 30.7101 15.9523 29.4079 15.9014 28.0293C15.8505 26.6506 16.3487 25.3081 17.2865 24.2962C17.7728 23.7694 18.3634 23.3495 19.0207 23.0633C19.6781 22.777 20.3878 22.6306 21.1048 22.6335C22.4173 22.6311 23.6816 23.1282 24.641 24.024C25.6595 24.9697 26.249 26.256 26.3 27.645C26.351 29.034 25.859 30.36 24.9125 31.3785Z" fill="url(#paint1_linear_53_2949)"/>
<path d="M21.6865 28.4235C21.3313 28.7798 21.1319 29.2624 21.1319 29.7656C21.1319 30.2687 21.3313 30.7513 21.6865 31.1077C22.045 31.4662 22.522 31.6642 23.029 31.6642C23.536 31.6642 24.0122 31.4662 24.3707 31.1077C25.1102 30.3682 25.1102 29.1637 24.3707 28.4235C23.6312 27.6832 22.4275 27.6847 21.6865 28.4235ZM23.3102 30.0472C23.2347 30.1201 23.1339 30.1608 23.029 30.1608C22.9241 30.1608 22.8232 30.1201 22.7477 30.0472C22.6922 29.9916 22.6544 29.9208 22.6391 29.8437C22.6238 29.7666 22.6317 29.6867 22.6618 29.6141C22.6919 29.5415 22.7429 29.4794 22.8082 29.4358C22.8736 29.3921 22.9504 29.3688 23.029 29.3688C23.1076 29.3688 23.1844 29.3921 23.2498 29.4358C23.3151 29.4794 23.3661 29.5415 23.3962 29.6141C23.4263 29.6867 23.4342 29.7666 23.4189 29.8437C23.4036 29.9208 23.3658 29.9916 23.3102 30.0472ZM20.5142 27.2512C21.2537 26.511 21.2537 25.3072 20.5142 24.567C19.7747 23.8267 18.571 23.8282 17.83 24.567C17.4748 24.9233 17.2754 25.4059 17.2754 25.9091C17.2754 26.4122 17.4748 26.8948 17.83 27.2512C18.1997 27.6217 18.6857 27.8062 19.1717 27.8062C19.6577 27.8062 20.1437 27.621 20.5142 27.2512ZM18.8905 25.6275C18.9275 25.5905 18.9715 25.5612 19.0198 25.5413C19.0682 25.5213 19.12 25.5111 19.1723 25.5112C19.2246 25.5112 19.2764 25.5216 19.3247 25.5417C19.3729 25.5618 19.4168 25.5912 19.4537 25.6282C19.4907 25.6652 19.52 25.7092 19.5399 25.7575C19.5599 25.8059 19.5701 25.8577 19.57 25.91C19.57 25.9623 19.5596 26.0141 19.5395 26.0624C19.5194 26.1107 19.49 26.1545 19.453 26.1915C19.3782 26.266 19.2768 26.3079 19.1712 26.3077C19.0656 26.3076 18.9643 26.2655 18.8897 26.1907C18.8152 26.1159 18.7733 26.0146 18.7735 25.9089C18.7736 25.8033 18.8157 25.702 18.8905 25.6275ZM23.7452 25.1925C23.6757 25.1227 23.593 25.0674 23.502 25.0297C23.411 24.992 23.3135 24.9726 23.215 24.9726C23.1165 24.9726 23.019 24.992 22.928 25.0297C22.837 25.0674 22.7543 25.1227 22.6847 25.1925L18.4562 29.4217C18.3866 29.4913 18.3314 29.574 18.2937 29.665C18.256 29.756 18.2366 29.8535 18.2366 29.952C18.2366 30.0504 18.256 30.1479 18.2937 30.2389C18.3314 30.3299 18.3866 30.4126 18.4562 30.4822C18.5259 30.5518 18.6085 30.6071 18.6995 30.6448C18.7905 30.6824 18.888 30.7018 18.9865 30.7018C19.085 30.7018 19.1825 30.6824 19.2735 30.6448C19.3644 30.6071 19.4471 30.5518 19.5167 30.4822L23.7452 26.253C23.815 26.1834 23.8703 26.1007 23.908 26.0097C23.9457 25.9187 23.9651 25.8212 23.9651 25.7227C23.9651 25.6242 23.9457 25.5267 23.908 25.4357C23.8703 25.3447 23.815 25.262 23.7452 25.1925Z" fill="url(#paint2_linear_53_2949)"/>
<path d="M30.9218 9.38324C30.4345 8.8911 29.8541 8.501 29.2143 8.23572C28.5746 7.97045 27.8884 7.83532 27.1958 7.83824C26.0168 7.83666 24.8719 8.23423 23.9476 8.96624C23.0206 8.23337 21.8728 7.8358 20.6911 7.83824C17.7863 7.83824 15.4238 10.203 15.4238 13.1107V15.5032H12.1426C11.9437 15.5032 11.7529 15.5823 11.6122 15.7229C11.4716 15.8636 11.3926 16.0543 11.3926 16.2532V37.0192C11.3936 37.8522 11.7249 38.6507 12.3139 39.2397C12.9028 39.8287 13.7014 40.16 14.5343 40.161H30.0436C30.0541 40.161 30.0623 40.1557 30.0728 40.155H32.8958C33.8499 40.154 34.7646 39.7746 35.4393 39.0999C36.1139 38.4253 36.4933 37.5106 36.4943 36.5565V16.2532C36.4943 16.0543 36.4153 15.8636 36.2747 15.7229C36.134 15.5823 35.9432 15.5032 35.7443 15.5032H32.4631V13.1115C32.4654 12.4191 32.3304 11.7332 32.0659 11.0933C31.8013 10.4535 31.4125 9.87251 30.9218 9.38399V9.38324ZM29.8591 10.4422C30.2104 10.7921 30.4888 11.2081 30.6782 11.6663C30.8675 12.1245 30.9641 12.6157 30.9623 13.1115V15.5032H25.9628V13.1107C25.9632 12.0182 25.6217 10.953 24.9863 10.0642C25.6265 9.59332 26.4003 9.33898 27.1951 9.33824C28.2061 9.33824 29.1511 9.72899 29.8583 10.4415L29.8591 10.4422ZM23.4233 13.1115C23.4233 12.4372 23.6123 11.7937 23.9431 11.2252C24.2746 11.7945 24.4628 12.438 24.4628 13.1115V15.504H23.4226L23.4233 13.1115ZM16.9238 13.1115C16.9242 12.112 17.3211 11.1535 18.0273 10.4462C18.7336 9.73898 19.6916 9.34078 20.6911 9.33899C21.5033 9.33899 22.2676 9.60224 22.9013 10.062C22.2649 10.9514 21.9229 12.0178 21.9233 13.1115V15.504H16.9238V13.1115ZM12.8926 37.02V17.004H29.2936V36.5512C29.2936 36.561 29.2988 36.5692 29.2988 36.579C29.3048 37.3283 29.5464 38.0567 29.9896 38.661H14.5343C14.0991 38.6604 13.6819 38.4872 13.3741 38.1795C13.0663 37.8717 12.8932 37.4552 12.8926 37.02ZM34.9943 36.5572C34.9943 37.7145 34.0531 38.6557 32.8958 38.6557C31.7386 38.6557 30.7973 37.7145 30.7973 36.5572V17.004H34.9951L34.9943 36.5572Z" fill="url(#paint3_linear_53_2949)"/>
<defs>
<linearGradient id="paint0_linear_53_2949" x1="23.9415" y1="1.49847" x2="23.9415" y2="46.5" gradientUnits="userSpaceOnUse">
<stop stop-color="#D73FAB"/>
<stop offset="1" stop-color="#6A0BD4"/>
</linearGradient>
<linearGradient id="paint1_linear_53_2949" x1="21.1002" y1="21.1351" x2="21.1002" y2="34.5435" gradientUnits="userSpaceOnUse">
<stop stop-color="#D73FAB"/>
<stop offset="1" stop-color="#6A0BD4"/>
</linearGradient>
<linearGradient id="paint2_linear_53_2949" x1="21.1004" y1="24.0123" x2="21.1004" y2="31.6642" gradientUnits="userSpaceOnUse">
<stop stop-color="#D73FAB"/>
<stop offset="1" stop-color="#6A0BD4"/>
</linearGradient>
<linearGradient id="paint3_linear_53_2949" x1="23.9435" y1="7.8382" x2="23.9435" y2="40.161" gradientUnits="userSpaceOnUse">
<stop stop-color="#D73FAB"/>
<stop offset="1" stop-color="#6A0BD4"/>
</linearGradient>
</defs>
</svg>
