<svg width="60" height="60" viewBox="0 0 60 60" fill="none" xmlns="http://www.w3.org/2000/svg">
<g clip-path="url(#clip0_20_1334)">
<path d="M28.3155 11.7969C19.5769 12.5991 12.5993 19.5767 11.7971 28.3154L28.3155 11.7969ZM31.6845 48.2028C40.4231 47.4005 47.4007 40.423 48.2029 31.6843L31.6845 48.2028Z" fill="white"/>
<path d="M8.28082 31.8319C8.22945 31.2226 8.20353 30.6114 8.20312 30C8.20312 17.9811 17.9811 8.20312 30 8.20312C30.617 8.20312 31.2277 8.23031 31.8319 8.28082L38.8 1.31273C36.017 0.460078 33.0623 0 30 0C13.4314 0 0 13.4314 0 30C0 33.0623 0.460078 36.017 1.31273 38.8L8.28082 31.8319ZM51.7192 28.1681C51.7697 28.7723 51.7969 29.383 51.7969 30C51.7969 42.0189 42.0189 51.7969 30 51.7969C29.383 51.7969 28.7723 51.7697 28.1681 51.7192L21.2 58.6873C23.983 59.5399 26.9377 60 30 60C46.5686 60 60 46.5686 60 30C60 26.9377 59.5399 23.983 58.6873 21.2L51.7192 28.1681ZM17.9321 38.3391L17.2344 39.0369C17.4976 39.2987 17.7735 39.5732 17.9065 39.7062C18.0629 39.8625 18.3302 40.1276 18.5818 40.3767C18.8374 40.1187 19.1113 39.8425 19.2735 39.6804C19.6767 39.2771 19.7101 38.6295 19.3467 38.2659C18.983 37.9023 18.3353 37.9358 17.9321 38.3391ZM42.842 18.4453L44.0412 17.2461L41.8628 16.2614L42.842 18.4453Z" fill="white"/>
<path d="M58.9703 10.9734L49.0266 1.02973C47.6536 -0.343242 45.4276 -0.343242 44.0548 1.02973L1.02973 44.0548C-0.343242 45.4276 -0.343242 47.6536 1.02973 49.0266L10.9734 58.9703C12.3464 60.3432 14.5724 60.3432 15.9452 58.9703L58.9703 15.9452C60.3432 14.5724 60.3432 12.3463 58.9703 10.9734ZM16.7844 49.4304C15.071 51.1438 12.283 51.1438 10.5696 49.4304C8.85621 47.7169 8.85621 44.929 10.5696 43.2156C12.283 41.5021 15.071 41.5021 16.7844 43.2156C18.4978 44.9291 18.4978 47.717 16.7844 49.4304ZM24.5249 41.38C24.5116 41.5932 24.4208 41.7943 24.2695 41.9453C24.1813 42.0338 24.0752 42.1024 23.9584 42.1465C23.8415 42.1907 23.7165 42.2093 23.5918 42.2012L20.1738 41.9832L21.5813 43.3907C21.7461 43.5555 21.8387 43.7791 21.8387 44.0122C21.8387 44.2453 21.7461 44.4688 21.5813 44.6337C21.4164 44.7985 21.1929 44.8911 20.9597 44.8911C20.7266 44.8911 20.5031 44.7985 20.3382 44.6337L15.3664 39.6618C15.2016 39.4969 15.1091 39.2734 15.1091 39.0403C15.1091 38.8072 15.2016 38.5837 15.3664 38.4189L15.3673 38.4182L15.3681 38.4173L16.6893 37.0962C17.7847 36.0007 19.5345 35.9679 20.5896 37.023C21.4546 37.888 21.5878 39.2196 21.0045 40.275L23.7038 40.4471C23.8189 40.4545 23.9315 40.4844 24.0351 40.5353C24.1387 40.5861 24.2313 40.6568 24.3075 40.7435C24.3838 40.8301 24.4422 40.9309 24.4795 41.0401C24.5168 41.1493 24.5322 41.2648 24.5249 41.38ZM26.58 39.6348C26.4984 39.7164 26.4015 39.7812 26.2949 39.8253C26.1882 39.8695 26.0739 39.8923 25.9585 39.8923C25.8431 39.8923 25.7288 39.8695 25.6221 39.8253C25.5155 39.7812 25.4186 39.7164 25.337 39.6348L20.3652 34.663C20.2836 34.5814 20.2188 34.4845 20.1747 34.3779C20.1305 34.2712 20.1078 34.1569 20.1078 34.0415C20.1078 33.9261 20.1305 33.8118 20.1747 33.7052C20.2188 33.5985 20.2836 33.5016 20.3652 33.42C20.4468 33.3384 20.5437 33.2736 20.6503 33.2295C20.757 33.1853 20.8713 33.1626 20.9867 33.1626C21.1021 33.1626 21.2164 33.1853 21.3231 33.2295C21.4297 33.2736 21.5266 33.3384 21.6082 33.42L26.58 38.3919C26.7448 38.5567 26.8374 38.7803 26.8374 39.0134C26.8374 39.2464 26.7448 39.47 26.58 39.6348ZM31.3767 34.8381C29.6633 36.5516 26.8753 36.5516 25.1619 34.8381C23.4485 33.1247 23.4485 30.3367 25.1619 28.6233C25.7803 28.0029 26.5706 27.5825 27.4307 27.4165C27.544 27.3945 27.6605 27.3951 27.7736 27.4182C27.8867 27.4413 27.9942 27.4864 28.0898 27.5511C28.1854 27.6157 28.2674 27.6985 28.331 27.7948C28.3947 27.8911 28.4387 27.999 28.4606 28.1123C28.4826 28.2257 28.482 28.3422 28.4589 28.4553C28.4358 28.5684 28.3907 28.6758 28.3261 28.7714C28.2615 28.8671 28.1787 28.9491 28.0824 29.0127C27.9861 29.0763 27.8782 29.1204 27.7649 29.1423C27.2493 29.242 26.7755 29.4942 26.4049 29.8663C25.3768 30.8944 25.3768 32.5671 26.4049 33.5952C27.433 34.6232 29.1057 34.6233 30.1338 33.5952C30.992 32.737 30.8438 31.7169 30.3435 30.8996L29.5495 31.6936C29.3847 31.8584 29.1611 31.951 28.928 31.951C28.6949 31.951 28.4714 31.8584 28.3065 31.6936C28.1417 31.5288 28.0491 31.3052 28.0491 31.0721C28.0491 30.839 28.1417 30.6154 28.3065 30.4506L29.7939 28.9634C29.8755 28.8817 29.9724 28.817 30.079 28.7728C30.1857 28.7286 30.2999 28.7059 30.4154 28.7059C30.5308 28.7059 30.6451 28.7286 30.7517 28.7728C30.8584 28.817 30.9553 28.8817 31.0369 28.9634C32.8664 30.7928 33.0062 33.2086 31.3767 34.8381ZM35.8335 30.3813C35.7519 30.4629 35.655 30.5277 35.5483 30.5719C35.4417 30.616 35.3274 30.6388 35.212 30.6388C35.0965 30.6388 34.9823 30.616 34.8756 30.5719C34.769 30.5277 34.6721 30.4629 34.5905 30.3813L29.6187 25.4095C29.5371 25.3279 29.4723 25.231 29.4281 25.1244C29.384 25.0177 29.3612 24.9035 29.3612 24.788C29.3612 24.6726 29.384 24.5583 29.4281 24.4517C29.4723 24.345 29.5371 24.2481 29.6187 24.1665C29.7003 24.0849 29.7972 24.0202 29.9038 23.976C30.0105 23.9318 30.1248 23.9091 30.2402 23.9091C30.3556 23.9091 30.4699 23.9318 30.5765 23.976C30.6832 24.0202 30.7801 24.0849 30.8617 24.1665L35.8335 29.1384C35.9983 29.3033 36.0909 29.5268 36.0909 29.7599C36.0909 29.993 35.9983 30.2165 35.8335 30.3813ZM41.6787 24.3641C41.48 24.7429 41.0636 24.9356 40.6171 24.8546L35.1754 23.8586L38.1443 26.8275C38.3079 26.9926 38.3995 27.2158 38.399 27.4482C38.3985 27.6806 38.3059 27.9034 38.1415 28.0677C37.9772 28.2321 37.7544 28.3246 37.522 28.3251C37.2895 28.3256 37.0664 28.234 36.9013 28.0704L31.9388 23.1079C31.8062 22.9753 31.7194 22.8039 31.6912 22.6186C31.6629 22.4333 31.6947 22.2438 31.7818 22.0778C31.8688 21.9118 32.0067 21.778 32.1753 21.696C32.3438 21.6139 32.5341 21.5879 32.7185 21.6217L38.4323 22.6675L35.373 19.6669C35.2066 19.5036 35.1119 19.281 35.1097 19.0479C35.1074 18.8148 35.1979 18.5904 35.3611 18.424L35.3672 18.4179C35.531 18.2541 35.7528 18.1616 35.9844 18.1605C36.2161 18.1594 36.4388 18.2498 36.6041 18.412L41.4548 23.17C41.7957 23.511 41.8813 23.9773 41.6787 24.3641ZM48.0438 18.0908C47.9964 18.1961 47.9286 18.2909 47.8445 18.3699C47.7603 18.449 47.6614 18.5106 47.5534 18.5514C47.4454 18.5922 47.3304 18.6112 47.215 18.6075C47.0996 18.6038 46.9861 18.5773 46.881 18.5297L45.7532 18.0199L43.6114 20.1615L44.1195 21.2945C44.2124 21.5068 44.2177 21.7472 44.1343 21.9633C44.0508 22.1795 43.8854 22.354 43.674 22.4488C43.4625 22.5437 43.2222 22.5512 43.0053 22.4697C42.7883 22.3882 42.6124 22.2244 42.5156 22.0138L39.4807 15.245C39.3952 15.0535 39.3699 14.8405 39.4081 14.6343C39.4464 14.428 39.5464 14.2383 39.6949 14.0902L39.6955 14.0896C39.8438 13.9405 40.0341 13.8402 40.2409 13.802C40.4476 13.7638 40.6612 13.7895 40.853 13.8757L47.605 16.9277C47.7101 16.9753 47.8049 17.0431 47.8839 17.1273C47.9629 17.2115 48.0245 17.3104 48.0653 17.4184C48.106 17.5264 48.1251 17.6414 48.1214 17.7567C48.1177 17.8721 48.0914 17.9856 48.0438 18.0908ZM51.9155 14.2909C51.5126 14.699 51.1086 15.1059 50.7035 15.5119C50.1485 16.0669 50.1086 16.0951 50.0565 16.1318C49.8872 16.2513 49.6812 16.3072 49.4747 16.2895C49.2683 16.2719 49.0747 16.1819 48.9281 16.0354L43.9605 11.0677C43.8789 10.986 43.8142 10.8891 43.77 10.7825C43.7258 10.6759 43.7031 10.5616 43.7031 10.4462C43.7031 10.3307 43.7258 10.2164 43.77 10.1098C43.8142 10.0032 43.8789 9.90627 43.9605 9.82465C44.0422 9.74303 44.1391 9.67829 44.2457 9.63412C44.3523 9.58995 44.4666 9.56721 44.5821 9.56721C44.6975 9.56721 44.8118 9.58995 44.9184 9.63412C45.025 9.67829 45.1219 9.74303 45.2036 9.82465L49.5538 14.175C49.9264 13.8012 50.2982 13.4267 50.6692 13.0513C50.8338 12.887 51.0568 12.7946 51.2893 12.7943C51.5219 12.7941 51.7451 12.8861 51.91 13.0501C52.0749 13.2141 52.1681 13.4368 52.1691 13.6694C52.1701 13.9019 52.0789 14.1254 51.9155 14.2909Z" fill="white"/>
<path d="M11.8126 44.4585C10.7845 45.4866 10.7845 47.1593 11.8126 48.1874C12.8407 49.2155 14.5134 49.2155 15.5415 48.1874C16.5696 47.1595 16.5696 45.4866 15.5415 44.4585C14.5134 43.4306 12.8406 43.4304 11.8126 44.4585Z" fill="white"/>
</g>
<defs>
<clipPath id="clip0_20_1334">
<rect width="60" height="60" fill="white"/>
</clipPath>
</defs>
</svg>
