<svg width="25" height="24" viewBox="0 0 25 24" fill="none" xmlns="http://www.w3.org/2000/svg">
<path d="M12.4998 19.8295L5.8512 23.8774C5.65583 23.9747 5.4745 24.014 5.30722 23.9956C5.14115 23.9759 4.97936 23.918 4.82185 23.822C4.66311 23.7235 4.54344 23.5844 4.46285 23.4046C4.38227 23.2249 4.37494 23.0285 4.44088 22.8156L6.21019 15.2258L0.358275 10.1105C0.193433 9.97507 0.0847587 9.81318 0.0322533 9.62483C-0.0202521 9.43647 -0.00865199 9.25611 0.0670535 9.08375C0.142759 8.9114 0.243496 8.76982 0.369265 8.65902C0.496255 8.55191 0.667203 8.47928 0.882109 8.44111L8.60407 7.76154L11.6152 0.574314C11.6982 0.371181 11.8179 0.224678 11.9742 0.134807C12.1305 0.0449355 12.3057 0 12.4998 0C12.694 0 12.8698 0.0449355 13.0273 0.134807C13.1849 0.224678 13.3039 0.371181 13.3845 0.574314L16.3956 7.76154L24.1157 8.44111C24.3319 8.47805 24.5034 8.5513 24.6304 8.66086C24.7574 8.7692 24.8588 8.91016 24.9345 9.08375C25.009 9.25611 25.0199 9.43647 24.9674 9.62483C24.9149 9.81318 24.8063 9.97507 24.6414 10.1105L18.7895 15.2258L20.5588 22.8156C20.6272 23.0261 20.6205 23.2218 20.5387 23.4028C20.4569 23.5838 20.3366 23.7229 20.1778 23.8201C20.0215 23.9186 19.8598 23.9771 19.6925 23.9956C19.5264 24.014 19.3457 23.9747 19.1503 23.8774L12.4998 19.8295Z" fill="#FFB526"/>
</svg>
