<svg width="24" height="26" viewBox="0 0 24 26" fill="none" xmlns="http://www.w3.org/2000/svg">
<path fill-rule="evenodd" clip-rule="evenodd" d="M18.0995 0.669874C14.0823 -0.223291 9.9164 -0.223291 5.89918 0.669874L5.46633 0.765124C4.33602 1.01574 3.29783 1.57345 2.46733 2.37617C1.63683 3.17889 1.04661 4.19513 0.762389 5.31173C-0.25413 9.30296 -0.25413 13.4833 0.762389 17.4745C1.03347 18.5394 1.58312 19.5139 2.35549 20.2991C3.12786 21.0843 4.09542 21.6521 5.15988 21.9449L5.75362 25.4704C5.77257 25.5824 5.82135 25.6872 5.89488 25.7741C5.96841 25.8609 6.064 25.9265 6.17169 25.9641C6.27939 26.0018 6.39525 26.01 6.50721 25.9879C6.61918 25.9658 6.72315 25.9143 6.8083 25.8387L10.2954 22.7361C12.9131 22.8933 15.5399 22.6851 18.0995 22.1176L18.5337 22.0224C19.664 21.7718 20.7022 21.2141 21.5327 20.4113C22.3632 19.6086 22.9534 18.5924 23.2376 17.4758C24.2541 13.4846 24.2541 9.30423 23.2376 5.313C22.9533 4.19623 22.3629 3.17989 21.5321 2.37715C20.7014 1.57442 19.6629 1.0168 18.5324 0.766394L18.0995 0.669874ZM6.97685 5.20886C6.73953 5.17429 6.49748 5.22181 6.29118 5.34348H6.2733C5.79448 5.62288 5.3629 5.97467 4.99517 6.38869C4.68872 6.74048 4.52273 7.09608 4.47932 7.43898C4.45378 7.64218 4.47166 7.84792 4.53167 8.04223L4.55465 8.05493C4.8994 9.06204 5.34886 10.031 5.8979 10.9429C6.60617 12.2235 7.47735 13.408 8.48992 14.4672L8.52057 14.5103L8.56909 14.5459L8.59845 14.5802L8.63421 14.6107C9.70291 15.6207 10.8966 16.4913 12.1864 17.2015C13.6612 18.0003 14.5563 18.3775 15.0938 18.535V18.5426C15.2509 18.5909 15.3939 18.6124 15.5382 18.6124C15.9962 18.5798 16.4298 18.3945 16.7691 18.0867C17.184 17.7209 17.5352 17.2904 17.8084 16.8116V16.8027C18.0651 16.3201 17.9782 15.8654 17.608 15.5568C16.8648 14.9097 16.0605 14.3355 15.2062 13.8423C14.6342 13.5337 14.0532 13.7204 13.8182 14.0328L13.3164 14.6627C13.0585 14.9752 12.5912 14.932 12.5912 14.932L12.5784 14.9396C9.09132 14.0544 8.16049 10.5429 8.16049 10.5429C8.16049 10.5429 8.11708 10.0653 8.44012 9.8215L9.06834 9.31858C9.36968 9.07474 9.57908 8.49816 9.25604 7.9292C8.76135 7.08011 8.18537 6.28053 7.53611 5.5416C7.39409 5.36808 7.19519 5.24984 6.97429 5.20759M12.8683 3.68232C12.6989 3.68232 12.5366 3.74922 12.4168 3.8683C12.2971 3.98739 12.2298 4.1489 12.2298 4.31732C12.2298 4.48573 12.2971 4.64724 12.4168 4.76633C12.5366 4.88541 12.6989 4.95232 12.8683 4.95232C14.4835 4.95232 15.8242 5.47683 16.8853 6.48267C17.4305 7.03258 17.8557 7.68409 18.134 8.39783C18.4136 9.11284 18.5413 9.87611 18.5081 10.6406C18.5046 10.724 18.5176 10.8073 18.5465 10.8857C18.5753 10.9641 18.6194 11.036 18.6762 11.0975C18.7909 11.2216 18.9504 11.2952 19.1197 11.3023C19.2891 11.3094 19.4543 11.2493 19.579 11.1352C19.7038 11.0211 19.7779 10.8624 19.785 10.694C19.8231 9.75363 19.6662 8.81553 19.324 7.93809C18.9803 7.05618 18.4569 6.25452 17.7867 5.58351L17.7739 5.57081C16.4575 4.31986 14.7912 3.68232 12.8683 3.68232ZM12.8248 5.7702C12.6555 5.7702 12.4931 5.8371 12.3734 5.95618C12.2537 6.07527 12.1864 6.23678 12.1864 6.4052C12.1864 6.57361 12.2537 6.73512 12.3734 6.85421C12.4931 6.97329 12.6555 7.0402 12.8248 7.0402H12.8466C14.011 7.12275 14.8589 7.50883 15.4526 8.14256C16.0617 8.79534 16.3771 9.60687 16.3528 10.6102C16.3489 10.7786 16.4124 10.9416 16.5294 11.0635C16.6464 11.1853 16.8072 11.2559 16.9765 11.2598C17.1459 11.2636 17.3098 11.2005 17.4323 11.0841C17.5548 10.9678 17.6258 10.8078 17.6297 10.6394C17.6603 9.32239 17.2338 8.18574 16.3886 7.27896V7.27642C15.5241 6.3544 14.3379 5.86672 12.9104 5.77147L12.8887 5.76893L12.8248 5.7702ZM12.8006 7.89745C12.7151 7.88995 12.6291 7.89965 12.5475 7.92597C12.4659 7.9523 12.3905 7.9947 12.3257 8.05066C12.261 8.10661 12.2082 8.17497 12.1706 8.25165C12.133 8.32833 12.1114 8.41175 12.1069 8.49695C12.1024 8.58214 12.1153 8.66736 12.1447 8.74751C12.1741 8.82766 12.2194 8.9011 12.2779 8.96344C12.3365 9.02579 12.407 9.07576 12.4854 9.11037C12.5638 9.14499 12.6484 9.16353 12.7342 9.16491C13.2679 9.19285 13.6088 9.35287 13.8233 9.5675C14.0391 9.7834 14.2 10.1301 14.2294 10.6724C14.231 10.7576 14.2498 10.8416 14.2847 10.9195C14.3197 10.9973 14.37 11.0673 14.4327 11.1254C14.4955 11.1835 14.5693 11.2284 14.6498 11.2575C14.7304 11.2866 14.816 11.2992 14.9016 11.2947C14.9871 11.2902 15.0709 11.2686 15.1479 11.2312C15.2249 11.1938 15.2935 11.1413 15.3497 11.077C15.4059 11.0126 15.4485 10.9377 15.475 10.8566C15.5014 10.7755 15.5112 10.69 15.5037 10.6051C15.4628 9.84309 15.2228 9.16999 14.7312 8.67469C14.2371 8.17939 13.5641 7.93809 12.8006 7.89745Z" fill="url(#paint0_linear_4002_512)"/>
<defs>
<linearGradient id="paint0_linear_4002_512" x1="12" y1="0" x2="12" y2="26" gradientUnits="userSpaceOnUse">
<stop stop-color="#D73FAB"/>
<stop offset="1" stop-color="#6A0BD4"/>
</linearGradient>
</defs>
</svg>
