<svg width="34" height="29" viewBox="0 0 34 29" fill="none" xmlns="http://www.w3.org/2000/svg">
<path d="M16.9981 28L3.63363 15.5197C2.74365 14.6789 2.04848 13.657 1.59607 12.5244C1.14366 11.3918 0.944779 10.1756 1.01315 8.95952C1.08151 7.74348 1.4155 6.55658 1.99207 5.48073C2.56864 4.40487 3.37406 3.46565 4.35279 2.72786C5.33151 1.99007 6.46023 1.47128 7.66109 1.20727C8.86195 0.943255 10.1064 0.940307 11.3085 1.19863C12.5106 1.45695 13.6418 1.97039 14.6241 2.70353C15.6064 3.43667 16.4163 4.37206 16.9981 5.44518C17.5749 4.37884 18.3769 3.44805 19.3496 2.71617C20.3224 1.98429 21.4429 1.4685 22.6351 1.20391C23.8272 0.939322 25.0629 0.932141 26.2581 1.18286C27.4533 1.43358 28.5799 1.93631 29.5612 2.65683C30.5425 3.37736 31.3556 4.29876 31.9449 5.35833C32.5343 6.41789 32.8862 7.59074 32.9767 8.79705C33.0671 10.0034 32.894 11.2148 32.4691 12.3489C32.0442 13.483 31.3775 14.5132 30.5144 15.3693L16.9981 28Z" stroke="#6D6D6D" stroke-width="2" stroke-linecap="round" stroke-linejoin="round"/>
</svg>
