<svg width="48" height="48" viewBox="0 0 48 48" fill="none" xmlns="http://www.w3.org/2000/svg">
<g clip-path="url(#clip0_53_2939)">
<path d="M43.3125 0H18.9375C16.3528 0 14.25 2.10281 14.25 4.6875V13.125H4.6875C2.10281 13.125 0 15.2278 0 17.8125V37.6875C0 40.2722 2.10281 42.375 4.6875 42.375H6.5625V47.0625C6.56257 47.2479 6.6176 47.4291 6.72062 47.5832C6.82364 47.7373 6.97004 47.8575 7.14131 47.9284C7.31258 47.9994 7.50104 48.018 7.68287 47.9818C7.86471 47.9457 8.03175 47.8565 8.16291 47.7255L13.5133 42.375H29.0625C31.6472 42.375 33.75 40.2722 33.75 37.6875V29.25H35.625V33.9375C35.6251 34.1229 35.6801 34.3041 35.7831 34.4582C35.8861 34.6123 36.0325 34.7325 36.2038 34.8034C36.3751 34.8744 36.5635 34.893 36.7454 34.8568C36.9272 34.8207 37.0943 34.7315 37.2254 34.6005L42.5758 29.25H44.0625C46.4544 29.25 48 27.4101 48 24.5625V4.6875C48 2.10281 45.8972 0 43.3125 0ZM31.875 37.6875C31.875 39.2383 30.6133 40.5 29.0625 40.5H13.125C12.8764 40.5 12.6379 40.5988 12.4621 40.7746L8.4375 44.7992V41.4375C8.4375 40.9197 8.01778 40.5 7.5 40.5H4.6875C3.13669 40.5 1.875 39.2383 1.875 37.6875V17.8125C1.875 16.2617 3.13669 15 4.6875 15H29.0625C30.6133 15 31.875 16.2617 31.875 17.8125V37.6875ZM46.125 24.5625C46.125 25.6129 45.8571 27.375 44.0625 27.375H42.1875C41.9389 27.375 41.7004 27.4738 41.5246 27.6496L37.5 31.6742V28.3125C37.5 27.7947 37.0803 27.375 36.5625 27.375H33.75V20.625H39.5625C40.0803 20.625 40.5 20.2053 40.5 19.6875C40.5 19.1697 40.0803 18.75 39.5625 18.75H33.75V17.8125C33.75 15.2278 31.6472 13.125 29.0625 13.125H16.125V4.6875C16.125 3.13669 17.3867 1.875 18.9375 1.875H43.3125C44.8633 1.875 46.125 3.13669 46.125 4.6875V24.5625Z" fill="url(#paint0_linear_53_2939)"/>
<path d="M39.5625 7.5H22.6875C22.1697 7.5 21.75 7.91972 21.75 8.4375C21.75 8.95528 22.1697 9.375 22.6875 9.375H39.5625C40.0803 9.375 40.5 8.95528 40.5 8.4375C40.5 7.91972 40.0803 7.5 39.5625 7.5ZM39.5625 13.125H35.8125C35.2947 13.125 34.875 13.5447 34.875 14.0625C34.875 14.5803 35.2947 15 35.8125 15H39.5625C40.0803 15 40.5 14.5803 40.5 14.0625C40.5 13.5447 40.0803 13.125 39.5625 13.125ZM8.4375 22.5C8.95406 22.5 9.375 22.0791 9.375 21.5625C9.375 21.0459 8.95406 20.625 8.4375 20.625C7.92094 20.625 7.5 21.0459 7.5 21.5625C7.5 22.0791 7.92094 22.5 8.4375 22.5ZM25.3125 20.625H12.1875C11.6709 20.625 11.25 21.0459 11.25 21.5625C11.25 22.0791 11.6709 22.5 12.1875 22.5H25.3125C25.8291 22.5 26.25 22.0791 26.25 21.5625C26.25 21.0459 25.8291 20.625 25.3125 20.625ZM25.3125 26.25H15.9375C15.4197 26.25 15 26.6697 15 27.1875C15 27.7053 15.4197 28.125 15.9375 28.125H25.3125C25.8303 28.125 26.25 27.7053 26.25 27.1875C26.25 26.6697 25.8303 26.25 25.3125 26.25ZM8.4375 28.125H12.1875C12.7053 28.125 13.125 27.7053 13.125 27.1875C13.125 26.6697 12.7053 26.25 12.1875 26.25H8.4375C7.91972 26.25 7.5 26.6697 7.5 27.1875C7.5 27.7053 7.91972 28.125 8.4375 28.125ZM17.8125 31.875H8.625C8.10722 31.875 7.6875 32.2947 7.6875 32.8125C7.6875 33.3303 8.10722 33.75 8.625 33.75H17.8125C18.3303 33.75 18.75 33.3303 18.75 32.8125C18.75 32.2947 18.3303 31.875 17.8125 31.875Z" fill="url(#paint1_linear_53_2939)"/>
</g>
<defs>
<linearGradient id="paint0_linear_53_2939" x1="24" y1="0" x2="24" y2="47.9998" gradientUnits="userSpaceOnUse">
<stop stop-color="#D73FAB"/>
<stop offset="1" stop-color="#6A0BD4"/>
</linearGradient>
<linearGradient id="paint1_linear_53_2939" x1="24" y1="7.5" x2="24" y2="33.75" gradientUnits="userSpaceOnUse">
<stop stop-color="#D73FAB"/>
<stop offset="1" stop-color="#6A0BD4"/>
</linearGradient>
<clipPath id="clip0_53_2939">
<rect width="48" height="48" fill="white"/>
</clipPath>
</defs>
</svg>
