<svg width="14" height="10" viewBox="0 0 14 10" fill="none" xmlns="http://www.w3.org/2000/svg">
<path d="M12.7008 0.0194626C12.3864 0.101982 12.444 0.0459871 8.78614 3.78001L5.28113 7.35784L3.49257 5.53061C1.87132 3.87727 1.6867 3.69749 1.51938 3.61792C0.971269 3.35562 0.333732 3.5855 0.0798717 4.13956C0.0135217 4.28397 0.0019826 4.34586 0.0019826 4.58753C0.0019826 5.09149 -0.159565 4.89403 2.43385 7.54056C5.00419 10.1606 4.81091 9.99258 5.28113 9.99258C5.76001 9.99258 5.35325 10.3669 9.83332 5.7988C14.3538 1.18653 13.9932 1.59618 13.9932 1.08043C13.9932 0.821084 13.9845 0.782771 13.898 0.602996C13.7826 0.361331 13.5778 0.163873 13.3499 0.0784054C13.1624 0.00472641 12.8623 -0.0217972 12.7008 0.0194626Z" fill="url(#paint0_linear_476_3498)"/>
<defs>
<linearGradient id="paint0_linear_476_3498" x1="-1.59423" y1="5.12237" x2="16.2889" y2="5.12237" gradientUnits="userSpaceOnUse">
<stop stop-color="#F599F3"/>
<stop offset="1" stop-color="#7855D5"/>
</linearGradient>
</defs>
</svg>
