<svg width="45" height="45" viewBox="0 0 45 45" fill="none" xmlns="http://www.w3.org/2000/svg">
<path fill-rule="evenodd" clip-rule="evenodd" d="M33.75 25.3127L33.75 28.1252C36.3607 28.1252 38.8645 27.0881 40.7106 25.2421C42.5566 23.396 43.5937 20.8922 43.5937 18.2815C43.5937 15.6708 42.5566 13.167 40.7106 11.3209C38.8645 9.47485 36.3607 8.43774 33.75 8.43774L33.75 11.2502C35.6148 11.2502 37.4032 11.991 38.7218 13.3096C40.0405 14.6283 40.7812 16.4167 40.7812 18.2815C40.7812 20.1463 40.0405 21.9347 38.7218 23.2533C37.4032 24.572 35.6148 25.3127 33.75 25.3127ZM23.3437 33.0887C23.7096 33.7164 23.9036 34.4294 23.9062 35.1559C23.9062 36.2748 23.4618 37.3479 22.6706 38.139C21.8794 38.9302 20.8064 39.3747 19.6875 39.3747L11.25 39.3747C8.63927 39.3747 6.13548 38.3376 4.28942 36.4915C2.44335 34.6454 1.40625 32.1416 1.40625 29.5309L1.40625 22.4997C1.40217 20.3622 2.18851 18.2986 3.61406 16.7059L13.8797 5.45592C14.4689 4.86182 15.2215 4.45637 16.0418 4.29111C16.8621 4.12585 17.7129 4.20824 18.4863 4.52782C19.2596 4.8474 19.9204 5.38972 20.3847 6.08584C20.849 6.78196 21.0958 7.60042 21.0937 8.43717C21.0998 9.33349 20.8135 10.2073 20.2781 10.9262L18.1406 14.0622L33.75 14.0622C34.8689 14.0622 35.9419 14.5066 36.7331 15.2978C37.5243 16.089 37.9687 17.162 37.9687 18.2809C37.9687 19.3998 37.5243 20.4729 36.7331 21.264C35.9419 22.0552 34.8689 22.4997 33.75 22.4997L26.4656 22.4997C26.783 23.3992 26.7861 24.3797 26.4745 25.2812C26.1629 26.1828 25.555 26.9521 24.75 27.4637C25.1159 28.0914 25.3099 28.8044 25.3125 29.5309C25.3107 30.2418 25.1292 30.9407 24.785 31.5627C24.4409 32.1847 23.9451 32.7096 23.3437 33.0887ZM6.27815 34.5028C7.59677 35.8214 9.3852 36.5622 11.25 36.5622L19.6875 36.5622C20.0605 36.5622 20.4181 36.414 20.6819 36.1503C20.9456 35.8866 21.0937 35.5289 21.0937 35.1559C21.0937 34.783 20.9456 34.4253 20.6819 34.1616C20.4181 33.8978 20.0605 33.7497 19.6875 33.7497L18.2812 33.7497L18.2812 30.9372L21.0937 30.9372C21.4667 30.9372 21.8244 30.789 22.0881 30.5253C22.3518 30.2616 22.5 29.9039 22.5 29.5309C22.5 29.158 22.3518 28.8003 22.0881 28.5366C21.8244 28.2728 21.4667 28.1247 21.0937 28.1247L18.2812 28.1247L18.2812 25.3122L22.5 25.3122C22.873 25.3122 23.2306 25.164 23.4944 24.9003C23.7581 24.6366 23.9062 24.2789 23.9062 23.9059C23.9062 23.533 23.7581 23.1753 23.4944 22.9116C23.2306 22.6478 22.873 22.4997 22.5 22.4997L18.2812 22.4997L18.2812 19.6872L33.75 19.6872C34.123 19.6872 34.4806 19.539 34.7444 19.2753C35.0081 19.0116 35.1562 18.6539 35.1562 18.2809C35.1562 17.908 35.0081 17.5503 34.7444 17.2866C34.4806 17.0228 34.123 16.8747 33.75 16.8747L12.7969 16.8747L18 9.28092C18.1567 9.072 18.2521 8.82356 18.2756 8.56346C18.299 8.30336 18.2496 8.04186 18.1328 7.80828C18.016 7.57469 17.8365 7.37824 17.6143 7.24094C17.3922 7.10364 17.1362 7.03092 16.875 7.03092C16.5061 7.03247 16.1526 7.17894 15.8906 7.43873L5.625 18.6184C4.70131 19.699 4.20157 21.0782 4.21875 22.4997L4.21875 29.5309C4.21875 31.3957 4.95954 33.1842 6.27815 34.5028Z" fill="white"/>
</svg>
