<svg width="45" height="45" viewBox="0 0 45 45" fill="none" xmlns="http://www.w3.org/2000/svg">
<path fill-rule="evenodd" clip-rule="evenodd" d="M11.25 25.3127L11.25 28.1252C8.63928 28.1252 6.13548 27.0881 4.28942 25.2421C2.44336 23.396 1.40625 20.8922 1.40625 18.2815C1.40625 15.6708 2.44336 13.167 4.28942 11.3209C6.13548 9.47485 8.63928 8.43774 11.25 8.43774L11.25 11.2502C9.3852 11.2502 7.59677 11.991 6.27816 13.3096C4.95954 14.6283 4.21875 16.4167 4.21875 18.2815C4.21875 20.1463 4.95954 21.9347 6.27816 23.2533C7.59677 24.572 9.3852 25.3127 11.25 25.3127ZM21.6563 33.0887C21.2904 33.7164 21.0964 34.4294 21.0938 35.1559C21.0938 36.2748 21.5382 37.3479 22.3294 38.139C23.1206 38.9302 24.1936 39.3747 25.3125 39.3747L33.75 39.3747C36.3607 39.3747 38.8645 38.3376 40.7106 36.4915C42.5566 34.6454 43.5938 32.1416 43.5938 29.5309L43.5938 22.4997C43.5978 20.3622 42.8115 18.2986 41.3859 16.7059L31.1203 5.45592C30.5311 4.86182 29.7785 4.45637 28.9582 4.29111C28.1379 4.12585 27.2871 4.20824 26.5137 4.52782C25.7404 4.8474 25.0796 5.38972 24.6153 6.08584C24.151 6.78196 23.9042 7.60042 23.9063 8.43717C23.9002 9.33349 24.1865 10.2073 24.7219 10.9262L26.8594 14.0622L11.25 14.0622C10.1311 14.0622 9.05806 14.5066 8.26689 15.2978C7.47572 16.089 7.03125 17.162 7.03125 18.2809C7.03125 19.3998 7.47572 20.4729 8.26689 21.264C9.05806 22.0552 10.1311 22.4997 11.25 22.4997L18.5344 22.4997C18.217 23.3992 18.2139 24.3797 18.5255 25.2812C18.8371 26.1828 19.445 26.9521 20.25 27.4637C19.8841 28.0914 19.6901 28.8044 19.6875 29.5309C19.6893 30.2418 19.8708 30.9407 20.215 31.5627C20.5591 32.1847 21.0549 32.7096 21.6563 33.0887ZM38.7218 34.5028C37.4032 35.8214 35.6148 36.5622 33.75 36.5622L25.3125 36.5622C24.9395 36.5622 24.5819 36.414 24.3181 36.1503C24.0544 35.8866 23.9063 35.5289 23.9063 35.1559C23.9063 34.783 24.0544 34.4253 24.3181 34.1616C24.5819 33.8978 24.9395 33.7497 25.3125 33.7497L26.7188 33.7497L26.7188 30.9372L23.9063 30.9372C23.5333 30.9372 23.1756 30.789 22.9119 30.5253C22.6482 30.2616 22.5 29.9039 22.5 29.5309C22.5 29.158 22.6482 28.8003 22.9119 28.5366C23.1756 28.2728 23.5333 28.1247 23.9063 28.1247L26.7188 28.1247L26.7188 25.3122L22.5 25.3122C22.127 25.3122 21.7694 25.164 21.5056 24.9003C21.2419 24.6366 21.0938 24.2789 21.0938 23.9059C21.0938 23.533 21.2419 23.1753 21.5056 22.9116C21.7694 22.6478 22.127 22.4997 22.5 22.4997L26.7188 22.4997L26.7188 19.6872L11.25 19.6872C10.877 19.6872 10.5194 19.539 10.2556 19.2753C9.99191 19.0116 9.84375 18.6539 9.84375 18.2809C9.84375 17.908 9.99191 17.5503 10.2556 17.2866C10.5194 17.0228 10.877 16.8747 11.25 16.8747L32.2031 16.8747L27 9.28092C26.8433 9.072 26.7479 8.82356 26.7244 8.56346C26.701 8.30336 26.7504 8.04186 26.8672 7.80828C26.984 7.57469 27.1635 7.37824 27.3857 7.24094C27.6078 7.10364 27.8638 7.03092 28.125 7.03092C28.4939 7.03247 28.8474 7.17894 29.1094 7.43873L39.375 18.6184C40.2987 19.699 40.7984 21.0782 40.7813 22.4997L40.7813 29.5309C40.7813 31.3957 40.0405 33.1842 38.7218 34.5028Z" fill="white"/>
</svg>
