<svg width="29" height="32" viewBox="0 0 29 32" fill="none" xmlns="http://www.w3.org/2000/svg">
<path d="M5.55323 32H23.0006C26.0628 32 28.5538 29.5089 28.5538 26.4468V9.84615C28.5538 9.30462 28.1108 8.86154 27.5692 8.86154H21.6615V7.38462C21.6615 3.31323 18.3483 0 14.2769 0C10.2055 0 6.89231 3.31323 6.89231 7.38462V8.86154H0.984615C0.443077 8.86154 0 9.30462 0 9.84615V26.4468C0 29.5089 2.49108 32 5.55323 32ZM8.86154 7.38462C8.86154 4.39631 11.2886 1.96923 14.2769 1.96923C17.2652 1.96923 19.6923 4.39631 19.6923 7.38462V8.86154H8.86154V7.38462ZM1.96923 10.8308H6.89231V13.2923C6.89231 13.8338 7.33538 14.2769 7.87692 14.2769C8.41846 14.2769 8.86154 13.8338 8.86154 13.2923V10.8308H19.6923V13.2923C19.6923 13.8338 20.1354 14.2769 20.6769 14.2769C21.2185 14.2769 21.6615 13.8338 21.6615 13.2923V10.8308H26.5846V26.4468C26.5846 28.4209 24.9748 30.0308 23.0006 30.0308H5.55323C3.57908 30.0308 1.96923 28.4209 1.96923 26.4468V10.8308Z" fill="#6D6D6D"/>
</svg>
