<svg width="32" height="32" viewBox="0 0 32 32" fill="none" xmlns="http://www.w3.org/2000/svg">
<path d="M31.8661 19.5344L26.4748 10.5483L31.3132 9.20425C31.8122 9.06569 32.1042 8.54894 31.9657 8.05006C31.827 7.55119 31.3102 7.25906 30.8114 7.39769L24.797 9.06831L24.7957 9.06869L16.9375 11.2514V0.9375C16.9375 0.41975 16.5178 0 16 0C15.4823 0 15.0625 0.41975 15.0625 0.9375V11.7723L6.72235 14.0889L6.72104 14.0892L0.68685 15.7653C0.187913 15.9039 -0.104087 16.4206 0.0344128 16.9195C0.149725 17.3344 0.526538 17.6063 0.937163 17.6063C1.02215 17.6063 1.10673 17.5947 1.1886 17.5719L4.95023 16.527L0.133975 24.5551C0.0465706 24.7008 0.000384633 24.8675 0.000350304 25.0374C0.000350304 28.8763 3.12366 31.9995 6.96266 31.9995C10.8018 31.9995 13.925 28.8763 13.925 25.0374C13.925 24.8675 13.8789 24.7008 13.7914 24.5551L8.40004 15.5688L23.0249 11.5065L18.2086 19.5344C18.1212 19.6801 18.075 19.8468 18.075 20.0168C18.075 23.8558 21.1983 26.9789 25.0373 26.9789C26.897 26.9789 28.6454 26.2547 29.9605 24.9397C31.2755 23.6246 31.9997 21.8763 31.9996 20.0166C31.9997 19.8468 31.9535 19.6801 31.8661 19.5344ZM6.96266 30.1246C4.47785 30.1246 2.40435 28.3334 1.96291 25.9748H11.9624C11.521 28.3334 9.44754 30.1246 6.96266 30.1246ZM11.3319 24.0998H2.59354L6.96266 16.8173L11.3319 24.0998ZM25.0373 11.7968L29.4066 19.0792H20.6681L25.0373 11.7968ZM25.0374 25.104C22.5526 25.104 20.479 23.3129 20.0375 20.9543H30.0372C29.5957 23.3129 27.5223 25.104 25.0374 25.104Z" fill="#6D6D6D"/>
</svg>
