<svg width="62" height="57" viewBox="0 0 62 57" fill="none" xmlns="http://www.w3.org/2000/svg">
<path fill-rule="evenodd" clip-rule="evenodd" d="M10.9945 0C8.81998 0 6.69431 0.644813 4.88628 1.8529C3.07825 3.06099 1.66906 4.77809 0.836909 6.78707C0.00476373 8.79605 -0.212964 11.0067 0.211261 13.1394C0.635485 15.2721 1.68261 17.2311 3.22021 18.7687C4.75782 20.3063 6.71684 21.3535 8.84956 21.7777C10.9823 22.2019 13.1929 21.9842 15.2019 21.152C17.2109 20.3199 18.928 18.9107 20.1361 17.1027C21.3441 15.2946 21.989 13.169 21.989 10.9945C21.989 8.07856 20.8306 5.28207 18.7687 3.22021C16.7069 1.15834 13.9104 0 10.9945 0ZM50.5746 0C48.4001 0 46.2744 0.644813 44.4664 1.8529C42.6583 3.06099 41.2492 4.77809 40.417 6.78707C39.5849 8.79605 39.3671 11.0067 39.7914 13.1394C40.2156 15.2721 41.2627 17.2311 42.8003 18.7687C44.3379 20.3063 46.2969 21.3535 48.4297 21.7777C50.5624 22.2019 52.773 21.9842 54.782 21.152C56.791 20.3199 58.5081 18.9107 59.7162 17.1027C60.9242 15.2946 61.5691 13.169 61.5691 10.9945C61.5691 8.07856 60.4107 5.28207 58.3488 3.22021C56.287 1.15834 53.4905 0 50.5746 0ZM13.4709 39.7712C18.7497 36.7734 24.7143 35.1926 30.7849 35.1823C36.8554 35.1926 42.8201 36.7734 48.0989 39.7712C53.3777 42.7689 57.791 47.0815 60.9097 52.2897L53.3895 56.6875C51.0426 52.7902 47.7279 49.5658 43.7672 47.3275C39.8065 45.0892 35.3343 43.9129 30.7849 43.9129C26.2354 43.9129 21.7633 45.0892 17.8026 47.3275C13.8419 49.5658 10.5272 52.7902 8.18024 56.6875L0.660019 52.2897C3.77877 47.0815 8.19209 42.7689 13.4709 39.7712Z" fill="#D1D1D1" fill-opacity="0.2"/>
</svg>
